HIERARCHY
ROOT root
{
	OFFSET	0.00	0.00	0.00
	CHANNELS 6 Xposition Yposition Zposition Zrotation Xrotation Yrotation
	JOINT back
	{
		OFFSET	 0.496092	-0.006840	-0.000859
		CHANNELS 3 Zrotation Xrotation Yrotation
		JOINT chest
		{
			OFFSET	 0.264817	 0.004177	 0.000000
			CHANNELS 3 Zrotation Xrotation Yrotation
			JOINT l_clavicle
			{
				OFFSET	 0.114550	 0.000716	-0.065320
				CHANNELS 3 Zrotation Xrotation Yrotation
				JOINT l_end_clavicle
				{
					OFFSET	 0.162817	-0.003802	 0.000068
					CHANNELS 3 Zrotation Xrotation Yrotation
					JOINT l_shoulder
					{
						OFFSET	 0.048218	-0.009968	 0.046888
						CHANNELS 3 Zrotation Xrotation Yrotation
						JOINT l_forearm
						{
							OFFSET	 0.308788	 0.084636	-0.003166
							CHANNELS 3 Zrotation Xrotation Yrotation
							JOINT l_end_wrist
							{
								OFFSET	 0.317021	-0.006522	 0.006333
								CHANNELS 3 Zrotation Xrotation Yrotation
								JOINT l_index1
								{
									OFFSET	 0.152748	-0.021000	-0.014320
									CHANNELS 3 Zrotation Xrotation Yrotation
									JOINT l_index2
									{
										OFFSET	 0.039283	 0.000000	 0.000000
										CHANNELS 3 Zrotation Xrotation Yrotation
										JOINT l_index3
										{
											OFFSET	 0.038151	 0.000000	 0.000000
											CHANNELS 3 Zrotation Xrotation Yrotation
											End Site
											{
												OFFSET	 0.038151	 0.000000	 0.000000
											}
										}
									}
								}
								JOINT l_middle1
								{
									OFFSET	 0.151723	 0.016194	-0.014667
									CHANNELS 3 Zrotation Xrotation Yrotation
									JOINT l_middle_2
									{
										OFFSET	 0.038269	 0.000000	 0.000000
										CHANNELS 3 Zrotation Xrotation Yrotation
										JOINT l_middle_3
										{
											OFFSET	 0.039743	 0.000000	 0.000000
											CHANNELS 3 Zrotation Xrotation Yrotation
											End Site
											{
												OFFSET	 0.039743	 0.000000	 0.000000
											}
										}
									}
								}
								JOINT l_pinky1
								{
									OFFSET	 0.117088	 0.077397	-0.013819
									CHANNELS 3 Zrotation Xrotation Yrotation
									JOINT l_pinky2
									{
										OFFSET	 0.028938	 0.000000	 0.000000
										CHANNELS 3 Zrotation Xrotation Yrotation
										JOINT l_pinky3
										{
											OFFSET	 0.027081	 0.000000	 0.000000
											CHANNELS 3 Zrotation Xrotation Yrotation
											End Site
											{
												OFFSET	 0.027081	 0.000000	 0.000000
											}
										}
									}
								}
								JOINT l_ring1
								{
									OFFSET	 0.137788	 0.047650	-0.014135
									CHANNELS 3 Zrotation Xrotation Yrotation
									JOINT l_ring2
									{
										OFFSET	 0.030749	 0.000000	 0.000000
										CHANNELS 3 Zrotation Xrotation Yrotation
										JOINT l_ring3
										{
											OFFSET	 0.032711	 0.000000	 0.000000
											CHANNELS 3 Zrotation Xrotation Yrotation
											End Site
											{
												OFFSET	 0.032711	 0.000000	 0.000000
											}
										}
									}
								}
								JOINT l_thumb1
								{
									OFFSET	 0.054053	-0.036728	-0.011261
									CHANNELS 3 Zrotation Xrotation Yrotation
									JOINT l_thumb_2
									{
										OFFSET	 0.051141	-0.005593	-0.001180
										CHANNELS 3 Zrotation Xrotation Yrotation
										JOINT l_thumb_3
										{
											OFFSET	 0.046421	-0.001905	 0.000191
											CHANNELS 3 Zrotation Xrotation Yrotation
											End Site
											{
												OFFSET	 0.046421	-0.001905	 0.000191
											}
										}
									}
								}
							}
						}
					}
				}
			}
			JOINT neck
			{
				OFFSET	 0.143918	 0.000470	 0.000000
				CHANNELS 3 Zrotation Xrotation Yrotation
				JOINT head
				{
					OFFSET	 0.001794	 0.038939	 0.061196
					CHANNELS 3 Zrotation Xrotation Yrotation
					End Site
					{
						OFFSET	 0.001794	 0.038939	 0.061196
					}
				}
			}
			JOINT r_clavicle
			{
				OFFSET	 0.114552	 0.000716	 0.065320
				CHANNELS 3 Zrotation Xrotation Yrotation
				JOINT r_end_clavicle
				{
					OFFSET	-0.162817	 0.003801	-0.000067
					CHANNELS 3 Zrotation Xrotation Yrotation
					JOINT r_shoulder
					{
						OFFSET	-0.018257	 0.050581	-0.024760
						CHANNELS 3 Zrotation Xrotation Yrotation
						JOINT r_forearm
						{
							OFFSET	-0.236679	 0.140435	 0.230714
							CHANNELS 3 Zrotation Xrotation Yrotation
							JOINT r_end_wrist
							{
								OFFSET	-0.317022	 0.006522	-0.006331
								CHANNELS 3 Zrotation Xrotation Yrotation
								JOINT r_index1
								{
									OFFSET	-0.152748	 0.021000	 0.014322
									CHANNELS 3 Zrotation Xrotation Yrotation
									JOINT r_index2
									{
										OFFSET	-0.039280	 0.000000	-0.000001
										CHANNELS 3 Zrotation Xrotation Yrotation
										JOINT r_index3
										{
											OFFSET	-0.038152	 0.000000	-0.000001
											CHANNELS 3 Zrotation Xrotation Yrotation
											End Site
											{
												OFFSET	-0.038152	 0.000000	-0.000001
											}
										}
									}
								}
								JOINT r_middle1
								{
									OFFSET	-0.151722	-0.016194	 0.014664
									CHANNELS 3 Zrotation Xrotation Yrotation
									JOINT r_middle_2
									{
										OFFSET	-0.038270	 0.000000	 0.000003
										CHANNELS 3 Zrotation Xrotation Yrotation
										JOINT r_middle_3
										{
											OFFSET	-0.039744	 0.000000	 0.000000
											CHANNELS 3 Zrotation Xrotation Yrotation
											End Site
											{
												OFFSET	-0.039744	 0.000000	 0.000000
											}
										}
									}
								}
								JOINT r_pinky1
								{
									OFFSET	-0.117090	-0.077397	 0.013818
									CHANNELS 3 Zrotation Xrotation Yrotation
									JOINT r_pinky2
									{
										OFFSET	-0.028938	 0.000000	 0.000000
										CHANNELS 3 Zrotation Xrotation Yrotation
										JOINT r_pinky3
										{
											OFFSET	-0.027078	-0.000001	 0.000000
											CHANNELS 3 Zrotation Xrotation Yrotation
											End Site
											{
												OFFSET	-0.027078	-0.000001	 0.000000
											}
										}
									}
								}
								JOINT r_ring1
								{
									OFFSET	-0.137790	-0.047650	 0.014136
									CHANNELS 3 Zrotation Xrotation Yrotation
									JOINT r_ring2
									{
										OFFSET	-0.030748	 0.000000	-0.000001
										CHANNELS 3 Zrotation Xrotation Yrotation
										JOINT r_ring3
										{
											OFFSET	-0.032707	-0.000001	 0.000003
											CHANNELS 3 Zrotation Xrotation Yrotation
											End Site
											{
												OFFSET	-0.032707	-0.000001	 0.000003
											}
										}
									}
								}
								JOINT r_thumb1
								{
									OFFSET	-0.054054	 0.036728	 0.011262
									CHANNELS 3 Zrotation Xrotation Yrotation
									JOINT r_thumb_2
									{
										OFFSET	-0.051140	 0.005594	 0.001177
										CHANNELS 3 Zrotation Xrotation Yrotation
										JOINT r_thumb_3
										{
											OFFSET	-0.046419	 0.001906	-0.000190
											CHANNELS 3 Zrotation Xrotation Yrotation
											End Site
											{
												OFFSET	-0.046419	 0.001906	-0.000190
											}
										}
									}
								}
							}
						}
					}
				}
			}
		}
	}
	JOINT Pelvis
	{
		OFFSET	 0.153515	-0.004473	-0.002611
		CHANNELS 3 Zrotation Xrotation Yrotation
		JOINT l_thigh
		{
			OFFSET	 0.153678	-0.126876	 0.006858
			CHANNELS 3 Zrotation Xrotation Yrotation
			End Site
			{
				OFFSET	 0.153678	-0.126876	 0.006858
			}
		}
		JOINT r_thigh
		{
			OFFSET	 0.145748	 0.136132	 0.006403
			CHANNELS 3 Zrotation Xrotation Yrotation
			End Site
			{
				OFFSET	 0.145748	 0.136132	 0.006403
			}
		}
	}
}
MOTION
Frames:    5
Frame Time: 0.01666667
 0.162725	-0.036921	 0.052315	-82.973330	 21.322850	-92.436820	-12.469290	-0.438832	-2.661422	-11.201630	-1.974353	-2.451510	 1.898576	-9.047501	 104.879500	-0.813313	 0.122417	-8.559153	-34.151580	-27.046750	 13.119460	-77.284580	 23.623950	-1.993955	-10.790170	 26.085120	-22.450800	-10.264620	-3.347504	 49.384050	 2.465969	-1.147655	 53.529890	 2.448260	 1.021002	-43.632730	-0.680045	 1.020555	 40.404740	-0.239723	 3.157919	 21.635580	 2.666140	 5.020286	-60.111700	 35.405960	 18.878470	 20.462450	-6.694960	 19.242130	 17.766130	-5.647319	 19.246370	-70.640630	 16.840830	 9.371419	 31.346260	-3.778827	 9.430041	 23.403520	-0.512125	 10.301720	-64.843220	-36.716160	-2.656306	 27.816180	 15.609720	-0.539451	 0.135676	 16.990000	-0.375347	 3.456630	 1.080057	-1.274522	 90.105630	-89.436640	 1.463179	-121.160100	-178.671600	-6.656844	 103.240900	-0.813313	 0.122417	-8.559153	-33.963520	-28.174420	 9.873191	-80.527870	 19.154540	-3.760193	 4.772758	 19.950590	-3.293665	-10.748860	-3.775595	 50.546510	 2.465562	-1.147989	 54.141880	 2.503628	 0.963151	-45.179620	 1.195083	 2.473373	 39.905190	-0.228095	 3.162998	 25.896420	 2.886911	 4.406843	-69.313810	 44.033380	 22.163890	 14.640300	-6.653485	 19.256210	 20.092090	-5.956771	 19.311000	-86.155130	 21.749550	 12.222170	 25.050480	-3.764523	 9.436754	 25.196590	-0.488354	 10.143200	-68.542970	-51.617570	-12.041390	-7.588032	 16.019230	-0.540265	 0.139183	 43.138540	-0.402263	 3.690641	 0.000000	 90.000000	 0.000000	 171.506900	 1.230098	 160.779400	 178.196600	-10.923090	-26.833140
 0.142940	-0.072272	 0.050699	-101.415400	 19.678720	-88.996890	-12.081040	 0.169555	-2.306862	-10.803540	-0.281367	-2.146333	 1.521430	-7.006749	 105.897800	-0.813313	 0.122417	-8.559153	-30.484810	-23.101690	 22.595180	-63.646150	 21.306430	 1.022134	-7.141549	 23.054290	-27.295710	-10.282140	-3.359820	 49.554280	 2.465847	-1.147819	 53.756600	 2.448604	 1.020651	-43.642220	-0.658873	 1.036666	 40.501530	-0.238047	 3.158593	 22.242600	 2.665964	 5.020672	-60.105720	 35.238340	 18.807390	 20.489900	-6.687276	 19.244490	 18.192100	-5.652659	 19.246770	-70.902570	 16.732330	 9.305046	 31.237120	-3.774660	 9.431841	 23.909120	-0.513600	 10.309520	-64.660390	-39.383420	-4.564097	 24.108580	 14.693010	-0.537756	 0.127849	 9.911091	-0.349947	 3.397539	 1.114879	-2.075451	 90.124890	-90.563160	 1.299542	-120.782600	-178.969400	-4.928767	 104.504900	-0.813313	 0.122417	-8.559153	-27.583530	-22.852340	 22.201560	-66.094560	 14.686790	-0.499150	 3.875492	 15.406850	-7.368817	-10.713930	-3.737883	 50.860370	 2.465242	-1.148429	 54.748380	 2.494420	 0.972993	-44.919480	 0.876689	 2.234227	 40.318560	-0.225013	 3.164534	 27.053990	 2.850425	 4.533221	-67.459570	 41.621770	 21.340970	 15.994050	-6.636728	 19.262090	 21.034810	-5.913664	 19.296980	-83.927180	 20.328000	 11.453330	 25.977500	-3.753842	 9.441810	 26.509480	-0.495947	 10.201040	-67.198880	-48.335460	-10.978430	-0.478434	 15.939100	-0.540130	 0.138496	 38.091280	-0.405453	 3.644904	 0.000000	 90.000000	 0.000000	 171.857500	 1.802512	 162.976700	 179.781600	-10.274940	-22.953860
 0.133749	-0.081976	 0.049611	-107.617300	 18.903980	-88.057240	-11.955240	 0.370178	-2.191674	-10.676480	 0.276001	-2.047780	 1.392110	-6.348699	 106.229200	-0.813313	 0.122417	-8.559153	-29.554720	-21.757950	 25.568940	-59.164170	 20.849500	 1.858618	-5.995189	 22.013570	-28.762480	-10.287780	-3.363806	 49.609280	 2.465809	-1.147872	 53.829490	 2.448714	 1.020539	-43.645240	-0.651922	 1.041970	 40.532790	-0.237508	 3.158815	 22.438300	 2.665936	 5.020736	-60.104730	 35.183970	 18.784320	 20.498580	-6.684804	 19.245260	 18.329310	-5.654375	 19.246910	-70.986780	 16.696680	 9.283279	 31.201840	-3.773323	 9.432427	 24.071790	-0.514071	 10.312000	-64.602310	-40.284460	-5.149929	 22.876350	 14.394130	-0.537179	 0.125303	 7.699109	-0.340543	 3.379768	 1.125814	-2.333292	 90.131260	-90.901780	 1.312567	-120.709700	-179.073500	-4.371722	 104.919300	-0.813313	 0.122417	-8.559153	-25.927020	-20.934480	 26.037500	-61.285880	 13.496120	 0.439557	 3.411003	 13.876080	-8.723151	-10.702650	-3.725622	 50.962130	 2.465139	-1.148572	 54.945010	 2.491425	 0.976175	-44.835130	 0.773197	 2.155697	 40.452320	-0.224014	 3.165049	 27.431760	 2.837634	 4.574194	-66.854490	 40.850460	 21.064070	 16.422250	-6.631319	 19.264060	 21.340470	-5.899480	 19.292740	-83.200280	 19.872650	 11.200400	 26.273080	-3.750383	 9.443511	 26.937750	-0.498723	 10.219880	-66.760160	-47.293660	-10.547110	 1.812233	 15.911960	-0.540077	 0.138263	 36.449630	-0.405617	 3.629985	 0.000000	 90.000000	 0.000000	 171.952800	 1.994286	 163.686100	-179.744900	-10.028530	-21.693400
 0.121592	-0.091751	 0.048069	-114.968900	 17.872050	-87.111990	-11.809170	 0.607544	-2.055920	-10.529910	 0.934692	-1.931885	 1.236334	-5.580671	 106.617400	-0.813313	 0.122417	-8.559153	-28.624050	-20.164530	 28.996670	-53.851690	 20.448210	 2.715795	-4.712336	 20.735280	-30.411280	-10.294350	-3.368445	 49.673430	 2.465764	-1.147933	 53.914280	 2.448842	 1.020409	-43.648750	-0.643668	 1.048279	 40.569240	-0.236881	 3.159074	 22.666350	 2.665932	 5.020744	-60.104620	 35.120610	 18.757420	 20.508400	-6.681929	 19.246160	 18.489070	-5.656372	 19.247070	-71.084890	 16.654830	 9.257766	 31.160530	-3.771769	 9.433114	 24.261030	-0.514619	 10.314850	-64.535510	-41.363950	-5.815000	 21.412850	 14.042090	-0.536481	 0.122308	 5.101668	-0.328625	 3.359383	 1.138506	-2.633050	 90.138650	-91.281680	 1.359989	-120.615400	-179.200000	-3.722034	 105.408800	-0.813313	 0.122417	-8.559153	-24.244900	-18.614870	 30.455810	-55.564520	 12.219280	 1.424839	 2.773903	 12.025540	-10.362700	-10.689460	-3.711219	 51.081340	 2.465019	-1.148741	 55.175270	 2.487911	 0.979898	-44.736330	 0.653905	 2.064728	 40.608730	-0.222865	 3.165652	 27.868040	 2.822323	 4.621339	-66.155660	 39.967440	 20.738860	 16.912140	-6.624996	 19.266390	 21.698450	-5.883030	 19.288060	-82.360890	 19.351140	 10.906730	 26.614500	-3.746406	 9.445506	 27.432330	-0.502111	 10.241610	-66.253490	-46.091720	-9.988696	 4.485721	 15.878970	-0.540025	 0.137981	 34.521310	-0.405265	 3.612468	 0.000000	 90.000000	 0.000000	 172.051000	 2.223327	 164.500700	-179.214400	-9.710794	-20.216570
 0.110250	-0.098553	 0.046577	-121.311700	 16.904110	-86.449170	-11.685820	 0.812921	-1.938654	-10.406920	 1.503652	-1.832037	 1.099396	-4.925955	 106.950300	-0.813313	 0.122417	-8.559153	-27.958440	-18.792530	 31.888910	-49.246750	 20.205310	 3.326447	-3.658672	 19.589040	-31.767690	-10.299950	-3.372414	 49.728100	 2.465726	-1.147985	 53.986160	 2.448950	 1.020298	-43.651730	-0.636489	 1.053776	 40.600320	-0.236348	 3.159297	 22.860320	 2.665961	 5.020680	-60.105600	 35.067010	 18.734670	 20.516340	-6.679489	 19.246930	 18.624780	-5.658076	 19.247210	-71.168460	 16.619130	 9.236038	 31.125120	-3.770453	 9.433702	 24.421590	-0.515079	 10.317230	-64.479670	-42.309030	-6.365539	 20.142320	 13.738570	-0.535857	 0.119729	 2.871528	-0.317663	 3.342328	 1.149307	-2.887286	 90.144930	-91.591360	 1.428064	-120.517900	-179.312300	-3.168671	 105.831900	-0.813313	 0.122417	-8.559153	-23.022080	-16.587550	 34.188940	-50.590340	 11.213870	 2.150115	 2.156100	 10.394010	-11.819340	-10.678230	-3.698904	 51.183350	 2.464918	-1.148885	 55.372250	 2.484898	 0.983079	-44.651750	 0.554201	 1.988332	 40.742320	-0.221905	 3.166163	 28.233780	 2.809051	 4.660691	-65.570160	 39.232070	 20.461270	 17.320510	-6.619598	 19.268420	 22.004720	-5.869194	 19.284320	-81.657760	 18.916720	 10.658800	 26.902340	-3.743085	 9.447205	 27.846730	-0.505100	 10.259780	-65.829030	-45.080990	-9.465752	 6.765333	 15.849410	-0.539972	 0.137728	 32.865230	-0.404501	 3.597441	 0.000000	 90.000000	 0.000000	 172.123900	 2.423283	 165.179200	-178.778400	-9.412049	-18.953220
